<?xml version="1.0" encoding="UTF-8" ?>
<svg version="1.1" width="576" height="576" xmlns="http://www.w3.org/2000/svg" shape-rendering="crispEdges">
<rect x="234" y="0" width="63" height="9" fill="#000000" />
<rect x="216" y="9" width="18" height="9" fill="#000000" />
<rect x="234" y="9" width="63" height="9" fill="#8AEBF1" />
<rect x="297" y="9" width="18" height="9" fill="#000000" />
<rect x="207" y="18" width="9" height="9" fill="#000000" />
<rect x="216" y="18" width="18" height="9" fill="#8AEBF1" />
<rect x="234" y="18" width="18" height="9" fill="#000000" />
<rect x="252" y="18" width="63" height="9" fill="#8AEBF1" />
<rect x="315" y="18" width="27" height="9" fill="#000000" />
<rect x="189" y="27" width="18" height="9" fill="#000000" />
<rect x="207" y="27" width="18" height="9" fill="#8AEBF1" />
<rect x="225" y="27" width="54" height="9" fill="#394778" />
<rect x="279" y="27" width="63" height="9" fill="#8AEBF1" />
<rect x="342" y="27" width="27" height="9" fill="#000000" />
<rect x="180" y="36" width="9" height="9" fill="#000000" />
<rect x="189" y="36" width="18" height="9" fill="#8AEBF1" />
<rect x="207" y="36" width="18" height="9" fill="#394778" />
<rect x="225" y="36" width="54" height="36" fill="#28CCDF" />
<rect x="279" y="36" width="9" height="9" fill="#394778" />
<rect x="288" y="36" width="9" height="9" fill="#000000" />
<rect x="297" y="36" width="72" height="9" fill="#8AEBF1" />
<rect x="369" y="36" width="18" height="9" fill="#000000" />
<rect x="171" y="45" width="9" height="9" fill="#000000" />
<rect x="180" y="45" width="18" height="9" fill="#8AEBF1" />
<rect x="198" y="45" width="9" height="9" fill="#394778" />
<rect x="207" y="45" width="18" height="81" fill="#28CCDF" />
<rect x="279" y="45" width="9" height="9" fill="#28CCDF" />
<rect x="288" y="45" width="9" height="18" fill="#394778" />
<rect x="297" y="45" width="18" height="9" fill="#000000" />
<rect x="315" y="45" width="72" height="9" fill="#8AEBF1" />
<rect x="387" y="45" width="27" height="9" fill="#000000" />
<rect x="153" y="54" width="18" height="9" fill="#000000" />
<rect x="171" y="54" width="18" height="9" fill="#8AEBF1" />
<rect x="189" y="54" width="9" height="9" fill="#394778" />
<rect x="198" y="54" width="9" height="72" fill="#28CCDF" />
<rect x="279" y="54" width="9" height="36" fill="#3978A8" />
<rect x="297" y="54" width="18" height="9" fill="#8AEBF1" />
<rect x="315" y="54" width="27" height="9" fill="#000000" />
<rect x="342" y="54" width="72" height="9" fill="#8AEBF1" />
<rect x="414" y="54" width="27" height="9" fill="#000000" />
<rect x="144" y="63" width="9" height="9" fill="#000000" />
<rect x="153" y="63" width="27" height="9" fill="#8AEBF1" />
<rect x="180" y="63" width="9" height="9" fill="#394778" />
<rect x="189" y="63" width="9" height="63" fill="#28CCDF" />
<rect x="288" y="63" width="9" height="9" fill="#3978A8" />
<rect x="297" y="63" width="9" height="54" fill="#394778" />
<rect x="306" y="63" width="36" height="162" fill="#8AEBF1" />
<rect x="342" y="63" width="18" height="9" fill="#000000" />
<rect x="360" y="63" width="81" height="9" fill="#8AEBF1" />
<rect x="441" y="63" width="18" height="9" fill="#000000" />
<rect x="135" y="72" width="9" height="9" fill="#000000" />
<rect x="144" y="72" width="27" height="162" fill="#8AEBF1" />
<rect x="171" y="72" width="9" height="54" fill="#394778" />
<rect x="180" y="72" width="9" height="54" fill="#28CCDF" />
<rect x="225" y="72" width="45" height="9" fill="#28CCDF" />
<rect x="270" y="72" width="9" height="27" fill="#3978A8" />
<rect x="288" y="72" width="9" height="54" fill="#394778" />
<rect x="342" y="72" width="18" height="135" fill="#8AEBF1" />
<rect x="360" y="72" width="18" height="9" fill="#000000" />
<rect x="378" y="72" width="81" height="9" fill="#8AEBF1" />
<rect x="459" y="72" width="18" height="9" fill="#000000" />
<rect x="117" y="81" width="18" height="9" fill="#000000" />
<rect x="135" y="81" width="9" height="144" fill="#8AEBF1" />
<rect x="225" y="81" width="36" height="9" fill="#28CCDF" />
<rect x="261" y="81" width="9" height="27" fill="#3978A8" />
<rect x="360" y="81" width="18" height="108" fill="#8AEBF1" />
<rect x="378" y="81" width="27" height="9" fill="#000000" />
<rect x="405" y="81" width="54" height="9" fill="#8AEBF1" />
<rect x="459" y="81" width="9" height="9" fill="#000000" />
<rect x="108" y="90" width="9" height="9" fill="#000000" />
<rect x="117" y="90" width="18" height="135" fill="#8AEBF1" />
<rect x="225" y="90" width="27" height="9" fill="#28CCDF" />
<rect x="252" y="90" width="9" height="18" fill="#3978A8" />
<rect x="279" y="90" width="9" height="45" fill="#394778" />
<rect x="378" y="90" width="27" height="63" fill="#8AEBF1" />
<rect x="405" y="90" width="18" height="9" fill="#000000" />
<rect x="423" y="90" width="18" height="9" fill="#8AEBF1" />
<rect x="441" y="90" width="18" height="9" fill="#000000" />
<rect x="99" y="99" width="9" height="9" fill="#000000" />
<rect x="108" y="99" width="9" height="117" fill="#8AEBF1" />
<rect x="225" y="99" width="18" height="9" fill="#28CCDF" />
<rect x="243" y="99" width="9" height="18" fill="#3978A8" />
<rect x="270" y="99" width="9" height="45" fill="#394778" />
<rect x="405" y="99" width="18" height="27" fill="#8AEBF1" />
<rect x="423" y="99" width="18" height="9" fill="#000000" />
<rect x="90" y="108" width="9" height="9" fill="#000000" />
<rect x="99" y="108" width="9" height="108" fill="#8AEBF1" />
<rect x="225" y="108" width="9" height="9" fill="#28CCDF" />
<rect x="234" y="108" width="9" height="18" fill="#3978A8" />
<rect x="252" y="108" width="18" height="45" fill="#394778" />
<rect x="423" y="108" width="9" height="9" fill="#8AEBF1" />
<rect x="432" y="108" width="9" height="9" fill="#000000" />
<rect x="72" y="117" width="18" height="9" fill="#000000" />
<rect x="90" y="117" width="9" height="90" fill="#8AEBF1" />
<rect x="225" y="117" width="9" height="9" fill="#3978A8" />
<rect x="243" y="117" width="9" height="36" fill="#394778" />
<rect x="297" y="117" width="9" height="144" fill="#8AEBF1" />
<rect x="423" y="117" width="9" height="9" fill="#000000" />
<rect x="432" y="117" width="9" height="18" fill="#3978A8" />
<rect x="441" y="117" width="9" height="9" fill="#000000" />
<rect x="63" y="126" width="9" height="9" fill="#000000" />
<rect x="72" y="126" width="18" height="81" fill="#8AEBF1" />
<rect x="171" y="126" width="9" height="117" fill="#8AEBF1" />
<rect x="180" y="126" width="63" height="9" fill="#394778" />
<rect x="288" y="126" width="9" height="135" fill="#8AEBF1" />
<rect x="405" y="126" width="9" height="18" fill="#8AEBF1" />
<rect x="414" y="126" width="9" height="18" fill="#000000" />
<rect x="423" y="126" width="9" height="117" fill="#28CCDF" />
<rect x="441" y="126" width="9" height="18" fill="#3978A8" />
<rect x="450" y="126" width="18" height="9" fill="#000000" />
<rect x="54" y="135" width="9" height="9" fill="#000000" />
<rect x="63" y="135" width="9" height="63" fill="#8AEBF1" />
<rect x="180" y="135" width="9" height="108" fill="#8AEBF1" />
<rect x="189" y="135" width="54" height="9" fill="#394778" />
<rect x="279" y="135" width="9" height="126" fill="#8AEBF1" />
<rect x="432" y="135" width="9" height="108" fill="#28CCDF" />
<rect x="450" y="135" width="18" height="18" fill="#3978A8" />
<rect x="468" y="135" width="9" height="9" fill="#000000" />
<rect x="36" y="144" width="18" height="9" fill="#000000" />
<rect x="54" y="144" width="9" height="54" fill="#8AEBF1" />
<rect x="189" y="144" width="9" height="99" fill="#8AEBF1" />
<rect x="198" y="144" width="45" height="9" fill="#394778" />
<rect x="270" y="144" width="9" height="108" fill="#8AEBF1" />
<rect x="405" y="144" width="9" height="9" fill="#000000" />
<rect x="414" y="144" width="9" height="99" fill="#28CCDF" />
<rect x="441" y="144" width="9" height="99" fill="#28CCDF" />
<rect x="468" y="144" width="9" height="27" fill="#3978A8" />
<rect x="477" y="144" width="9" height="9" fill="#000000" />
<rect x="27" y="153" width="9" height="9" fill="#000000" />
<rect x="36" y="153" width="18" height="36" fill="#8AEBF1" />
<rect x="198" y="153" width="72" height="90" fill="#8AEBF1" />
<rect x="378" y="153" width="18" height="9" fill="#8AEBF1" />
<rect x="396" y="153" width="9" height="9" fill="#000000" />
<rect x="405" y="153" width="9" height="99" fill="#28CCDF" />
<rect x="450" y="153" width="9" height="90" fill="#28CCDF" />
<rect x="459" y="153" width="9" height="9" fill="#3978A8" />
<rect x="477" y="153" width="9" height="27" fill="#3978A8" />
<rect x="486" y="153" width="9" height="9" fill="#000000" />
<rect x="18" y="162" width="9" height="333" fill="#000000" />
<rect x="27" y="162" width="9" height="18" fill="#8AEBF1" />
<rect x="378" y="162" width="9" height="9" fill="#8AEBF1" />
<rect x="387" y="162" width="9" height="9" fill="#000000" />
<rect x="396" y="162" width="9" height="90" fill="#28CCDF" />
<rect x="459" y="162" width="9" height="72" fill="#28CCDF" />
<rect x="486" y="162" width="9" height="27" fill="#3978A8" />
<rect x="495" y="162" width="18" height="9" fill="#000000" />
<rect x="378" y="171" width="9" height="18" fill="#000000" />
<rect x="387" y="171" width="9" height="81" fill="#28CCDF" />
<rect x="468" y="171" width="9" height="63" fill="#28CCDF" />
<rect x="495" y="171" width="18" height="27" fill="#3978A8" />
<rect x="513" y="171" width="9" height="9" fill="#000000" />
<rect x="27" y="180" width="9" height="9" fill="#000000" />
<rect x="477" y="180" width="9" height="54" fill="#28CCDF" />
<rect x="513" y="180" width="9" height="36" fill="#3978A8" />
<rect x="522" y="180" width="9" height="9" fill="#000000" />
<rect x="27" y="189" width="9" height="72" fill="#8AEBF1" />
<rect x="36" y="189" width="18" height="9" fill="#000000" />
<rect x="360" y="189" width="9" height="9" fill="#8AEBF1" />
<rect x="369" y="189" width="9" height="9" fill="#000000" />
<rect x="378" y="189" width="9" height="63" fill="#28CCDF" />
<rect x="486" y="189" width="9" height="45" fill="#28CCDF" />
<rect x="522" y="189" width="9" height="36" fill="#3978A8" />
<rect x="531" y="189" width="18" height="9" fill="#000000" />
<rect x="36" y="198" width="18" height="45" fill="#8AEBF1" />
<rect x="54" y="198" width="18" height="9" fill="#000000" />
<rect x="360" y="198" width="9" height="9" fill="#000000" />
<rect x="369" y="198" width="9" height="54" fill="#28CCDF" />
<rect x="495" y="198" width="9" height="27" fill="#28CCDF" />
<rect x="504" y="198" width="9" height="9" fill="#3978A8" />
<rect x="531" y="198" width="18" height="18" fill="#3978A8" />
<rect x="549" y="198" width="9" height="9" fill="#000000" />
<rect x="54" y="207" width="18" height="27" fill="#8AEBF1" />
<rect x="72" y="207" width="27" height="9" fill="#000000" />
<rect x="342" y="207" width="9" height="9" fill="#8AEBF1" />
<rect x="351" y="207" width="9" height="9" fill="#000000" />
<rect x="360" y="207" width="9" height="54" fill="#28CCDF" />
<rect x="504" y="207" width="9" height="18" fill="#28CCDF" />
<rect x="549" y="207" width="9" height="9" fill="#3978A8" />
<rect x="558" y="207" width="9" height="324" fill="#000000" />
<rect x="72" y="216" width="27" height="18" fill="#8AEBF1" />
<rect x="99" y="216" width="18" height="9" fill="#000000" />
<rect x="342" y="216" width="9" height="9" fill="#000000" />
<rect x="351" y="216" width="9" height="45" fill="#28CCDF" />
<rect x="513" y="216" width="9" height="9" fill="#28CCDF" />
<rect x="531" y="216" width="9" height="9" fill="#3978A8" />
<rect x="540" y="216" width="18" height="9" fill="#000000" />
<rect x="99" y="225" width="18" height="18" fill="#8AEBF1" />
<rect x="117" y="225" width="27" height="9" fill="#000000" />
<rect x="306" y="225" width="27" height="18" fill="#8AEBF1" />
<rect x="333" y="225" width="9" height="18" fill="#000000" />
<rect x="342" y="225" width="9" height="36" fill="#28CCDF" />
<rect x="495" y="225" width="45" height="9" fill="#000000" />
<rect x="540" y="225" width="18" height="90" fill="#28CCDF" />
<rect x="54" y="234" width="45" height="9" fill="#000000" />
<rect x="117" y="234" width="27" height="36" fill="#8AEBF1" />
<rect x="144" y="234" width="18" height="9" fill="#000000" />
<rect x="162" y="234" width="9" height="9" fill="#8AEBF1" />
<rect x="459" y="234" width="36" height="9" fill="#000000" />
<rect x="495" y="234" width="45" height="81" fill="#28CCDF" />
<rect x="36" y="243" width="9" height="9" fill="#8AEBF1" />
<rect x="45" y="243" width="9" height="9" fill="#000000" />
<rect x="54" y="243" width="45" height="27" fill="#8AEBF1" />
<rect x="99" y="243" width="9" height="9" fill="#000000" />
<rect x="108" y="243" width="9" height="9" fill="#8AEBF1" />
<rect x="144" y="243" width="18" height="54" fill="#8AEBF1" />
<rect x="162" y="243" width="54" height="9" fill="#000000" />
<rect x="216" y="243" width="54" height="9" fill="#8AEBF1" />
<rect x="306" y="243" width="18" height="9" fill="#8AEBF1" />
<rect x="324" y="243" width="9" height="9" fill="#000000" />
<rect x="333" y="243" width="9" height="18" fill="#28CCDF" />
<rect x="414" y="243" width="45" height="9" fill="#000000" />
<rect x="459" y="243" width="36" height="81" fill="#28CCDF" />
<rect x="36" y="252" width="9" height="18" fill="#000000" />
<rect x="45" y="252" width="9" height="18" fill="#8AEBF1" />
<rect x="99" y="252" width="9" height="27" fill="#8AEBF1" />
<rect x="108" y="252" width="9" height="18" fill="#000000" />
<rect x="162" y="252" width="54" height="27" fill="#8AEBF1" />
<rect x="216" y="252" width="63" height="9" fill="#000000" />
<rect x="306" y="252" width="9" height="9" fill="#8AEBF1" />
<rect x="315" y="252" width="9" height="315" fill="#000000" />
<rect x="324" y="252" width="9" height="9" fill="#28CCDF" />
<rect x="369" y="252" width="45" height="9" fill="#000000" />
<rect x="414" y="252" width="45" height="63" fill="#28CCDF" />
<rect x="27" y="261" width="9" height="9" fill="#DFF6F5" />
<rect x="216" y="261" width="63" height="9" fill="#8AEBF1" />
<rect x="279" y="261" width="36" height="9" fill="#000000" />
<rect x="324" y="261" width="45" height="9" fill="#000000" />
<rect x="369" y="261" width="45" height="54" fill="#28CCDF" />
<rect x="27" y="270" width="9" height="36" fill="#000000" />
<rect x="36" y="270" width="45" height="36" fill="#DFF6F5" />
<rect x="81" y="270" width="18" height="9" fill="#8AEBF1" />
<rect x="108" y="270" width="9" height="18" fill="#8AEBF1" />
<rect x="117" y="270" width="9" height="36" fill="#000000" />
<rect x="126" y="270" width="18" height="18" fill="#8AEBF1" />
<rect x="216" y="270" width="36" height="9" fill="#000000" />
<rect x="252" y="270" width="63" height="9" fill="#8AEBF1" />
<rect x="324" y="270" width="45" height="36" fill="#28CCDF" />
<rect x="81" y="279" width="27" height="45" fill="#DFF6F5" />
<rect x="162" y="279" width="36" height="9" fill="#8AEBF1" />
<rect x="198" y="279" width="18" height="9" fill="#000000" />
<rect x="216" y="279" width="36" height="36" fill="#8AEBF1" />
<rect x="252" y="279" width="18" height="9" fill="#000000" />
<rect x="270" y="279" width="45" height="9" fill="#8AEBF1" />
<rect x="108" y="288" width="9" height="18" fill="#DFF6F5" />
<rect x="126" y="288" width="18" height="9" fill="#DFF6F5" />
<rect x="162" y="288" width="27" height="9" fill="#8AEBF1" />
<rect x="189" y="288" width="9" height="18" fill="#000000" />
<rect x="198" y="288" width="18" height="27" fill="#8AEBF1" />
<rect x="252" y="288" width="18" height="36" fill="#8AEBF1" />
<rect x="270" y="288" width="9" height="18" fill="#000000" />
<rect x="279" y="288" width="36" height="18" fill="#8AEBF1" />
<rect x="126" y="297" width="18" height="9" fill="#000000" />
<rect x="144" y="297" width="27" height="9" fill="#DFF6F5" />
<rect x="171" y="297" width="18" height="9" fill="#8AEBF1" />
<rect x="27" y="306" width="9" height="63" fill="#DFF6F5" />
<rect x="36" y="306" width="9" height="18" fill="#000000" />
<rect x="45" y="306" width="36" height="18" fill="#DFF6F5" />
<rect x="108" y="306" width="9" height="18" fill="#000000" />
<rect x="117" y="306" width="27" height="90" fill="#DFF6F5" />
<rect x="144" y="306" width="18" height="9" fill="#000000" />
<rect x="162" y="306" width="18" height="9" fill="#DFF6F5" />
<rect x="180" y="306" width="9" height="36" fill="#000000" />
<rect x="189" y="306" width="9" height="36" fill="#DFF6F5" />
<rect x="270" y="306" width="9" height="27" fill="#8AEBF1" />
<rect x="279" y="306" width="36" height="9" fill="#000000" />
<rect x="324" y="306" width="9" height="9" fill="#000000" />
<rect x="333" y="306" width="36" height="9" fill="#28CCDF" />
<rect x="144" y="315" width="18" height="90" fill="#DFF6F5" />
<rect x="162" y="315" width="18" height="9" fill="#000000" />
<rect x="198" y="315" width="36" height="45" fill="#DFF6F5" />
<rect x="234" y="315" width="18" height="9" fill="#8AEBF1" />
<rect x="279" y="315" width="9" height="27" fill="#000000" />
<rect x="288" y="315" width="27" height="18" fill="#8AEBF1" />
<rect x="324" y="315" width="9" height="27" fill="#28CCDF" />
<rect x="333" y="315" width="90" height="9" fill="#000000" />
<rect x="423" y="315" width="36" height="9" fill="#28CCDF" />
<rect x="495" y="315" width="18" height="9" fill="#28CCDF" />
<rect x="513" y="315" width="45" height="18" fill="#DFF6F5" />
<rect x="36" y="324" width="9" height="45" fill="#DFF6F5" />
<rect x="45" y="324" width="9" height="9" fill="#000000" />
<rect x="54" y="324" width="45" height="9" fill="#DFF6F5" />
<rect x="99" y="324" width="9" height="9" fill="#000000" />
<rect x="108" y="324" width="9" height="72" fill="#DFF6F5" />
<rect x="162" y="324" width="18" height="90" fill="#DFF6F5" />
<rect x="234" y="324" width="27" height="36" fill="#DFF6F5" />
<rect x="261" y="324" width="9" height="9" fill="#8AEBF1" />
<rect x="333" y="324" width="90" height="9" fill="#28CCDF" />
<rect x="423" y="324" width="90" height="9" fill="#000000" />
<rect x="45" y="333" width="9" height="45" fill="#DFF6F5" />
<rect x="54" y="333" width="45" height="9" fill="#000000" />
<rect x="99" y="333" width="9" height="63" fill="#DFF6F5" />
<rect x="261" y="333" width="18" height="9" fill="#DFF6F5" />
<rect x="288" y="333" width="9" height="117" fill="#DFF6F5" />
<rect x="297" y="333" width="18" height="9" fill="#8AEBF1" />
<rect x="333" y="333" width="36" height="9" fill="#28CCDF" />
<rect x="369" y="333" width="144" height="108" fill="#DFF6F5" />
<rect x="513" y="333" width="45" height="9" fill="#000000" />
<rect x="54" y="342" width="45" height="36" fill="#DFF6F5" />
<rect x="180" y="342" width="9" height="72" fill="#DFF6F5" />
<rect x="189" y="342" width="9" height="18" fill="#000000" />
<rect x="261" y="342" width="9" height="18" fill="#DFF6F5" />
<rect x="270" y="342" width="9" height="18" fill="#000000" />
<rect x="279" y="342" width="9" height="108" fill="#DFF6F5" />
<rect x="297" y="342" width="18" height="117" fill="#DFF6F5" />
<rect x="324" y="342" width="45" height="117" fill="#DFF6F5" />
<rect x="513" y="342" width="45" height="90" fill="#DFF6F5" />
<rect x="189" y="360" width="9" height="63" fill="#DFF6F5" />
<rect x="198" y="360" width="18" height="9" fill="#000000" />
<rect x="216" y="360" width="36" height="9" fill="#DFF6F5" />
<rect x="252" y="360" width="18" height="9" fill="#000000" />
<rect x="270" y="360" width="9" height="90" fill="#DFF6F5" />
<rect x="27" y="369" width="18" height="117" fill="#8AEBF1" />
<rect x="198" y="369" width="18" height="54" fill="#DFF6F5" />
<rect x="216" y="369" width="36" height="9" fill="#000000" />
<rect x="252" y="369" width="18" height="72" fill="#DFF6F5" />
<rect x="45" y="378" width="27" height="117" fill="#8AEBF1" />
<rect x="72" y="378" width="27" height="9" fill="#DFF6F5" />
<rect x="216" y="378" width="36" height="54" fill="#DFF6F5" />
<rect x="72" y="387" width="27" height="117" fill="#8AEBF1" />
<rect x="99" y="396" width="27" height="117" fill="#8AEBF1" />
<rect x="126" y="396" width="18" height="9" fill="#DFF6F5" />
<rect x="126" y="405" width="27" height="117" fill="#8AEBF1" />
<rect x="153" y="405" width="9" height="9" fill="#DFF6F5" />
<rect x="153" y="414" width="36" height="117" fill="#8AEBF1" />
<rect x="189" y="423" width="27" height="126" fill="#8AEBF1" />
<rect x="216" y="432" width="27" height="126" fill="#8AEBF1" />
<rect x="243" y="432" width="9" height="9" fill="#DFF6F5" />
<rect x="513" y="432" width="45" height="90" fill="#28CCDF" />
<rect x="243" y="441" width="27" height="126" fill="#8AEBF1" />
<rect x="369" y="441" width="72" height="9" fill="#DFF6F5" />
<rect x="441" y="441" width="72" height="90" fill="#28CCDF" />
<rect x="270" y="450" width="27" height="117" fill="#8AEBF1" />
<rect x="369" y="450" width="72" height="90" fill="#28CCDF" />
<rect x="297" y="459" width="18" height="99" fill="#8AEBF1" />
<rect x="324" y="459" width="45" height="90" fill="#28CCDF" />
<rect x="27" y="486" width="9" height="9" fill="#000000" />
<rect x="36" y="486" width="9" height="9" fill="#8AEBF1" />
<rect x="36" y="495" width="27" height="9" fill="#000000" />
<rect x="63" y="495" width="9" height="9" fill="#8AEBF1" />
<rect x="63" y="504" width="27" height="9" fill="#000000" />
<rect x="90" y="504" width="9" height="9" fill="#8AEBF1" />
<rect x="90" y="513" width="27" height="9" fill="#000000" />
<rect x="117" y="513" width="9" height="9" fill="#8AEBF1" />
<rect x="117" y="522" width="18" height="9" fill="#000000" />
<rect x="135" y="522" width="18" height="9" fill="#8AEBF1" />
<rect x="513" y="522" width="9" height="9" fill="#28CCDF" />
<rect x="522" y="522" width="36" height="9" fill="#000000" />
<rect x="135" y="531" width="27" height="9" fill="#000000" />
<rect x="162" y="531" width="27" height="9" fill="#8AEBF1" />
<rect x="441" y="531" width="27" height="9" fill="#28CCDF" />
<rect x="468" y="531" width="54" height="9" fill="#000000" />
<rect x="162" y="540" width="27" height="9" fill="#000000" />
<rect x="369" y="540" width="45" height="9" fill="#28CCDF" />
<rect x="414" y="540" width="54" height="9" fill="#000000" />
<rect x="189" y="549" width="27" height="9" fill="#000000" />
<rect x="324" y="549" width="36" height="9" fill="#28CCDF" />
<rect x="360" y="549" width="54" height="9" fill="#000000" />
<rect x="216" y="558" width="27" height="9" fill="#000000" />
<rect x="297" y="558" width="9" height="9" fill="#8AEBF1" />
<rect x="306" y="558" width="9" height="9" fill="#000000" />
<rect x="324" y="558" width="36" height="9" fill="#000000" />
<rect x="243" y="567" width="63" height="9" fill="#000000" />
</svg>