<?xml version="1.0" encoding="UTF-8" ?>
<svg version="1.1" width="58" height="28" xmlns="http://www.w3.org/2000/svg" shape-rendering="crispEdges">
<rect x="0" y="0" width="58" height="1" fill="#AA0000" />
<rect x="0" y="1" width="1" height="27" fill="#AA0000" />
<rect x="1" y="1" width="21" height="1" fill="#0000FF" />
<rect x="22" y="1" width="35" height="2" fill="#FF0000" />
<rect x="57" y="1" width="1" height="27" fill="#AA0000" />
<rect x="1" y="2" width="1" height="13" fill="#0000FF" />
<rect x="2" y="2" width="1" height="1" fill="#FFFFFF" />
<rect x="3" y="2" width="3" height="1" fill="#0000FF" />
<rect x="6" y="2" width="1" height="1" fill="#FFFFFF" />
<rect x="7" y="2" width="3" height="1" fill="#0000FF" />
<rect x="10" y="2" width="1" height="1" fill="#FFFFFF" />
<rect x="11" y="2" width="3" height="1" fill="#0000FF" />
<rect x="14" y="2" width="1" height="1" fill="#FFFFFF" />
<rect x="15" y="2" width="3" height="1" fill="#0000FF" />
<rect x="18" y="2" width="1" height="1" fill="#FFFFFF" />
<rect x="19" y="2" width="3" height="1" fill="#0000FF" />
<rect x="2" y="3" width="2" height="1" fill="#0000FF" />
<rect x="4" y="3" width="1" height="1" fill="#FFFFFF" />
<rect x="5" y="3" width="3" height="1" fill="#0000FF" />
<rect x="8" y="3" width="1" height="1" fill="#FFFFFF" />
<rect x="9" y="3" width="3" height="1" fill="#0000FF" />
<rect x="12" y="3" width="1" height="1" fill="#FFFFFF" />
<rect x="13" y="3" width="3" height="1" fill="#0000FF" />
<rect x="16" y="3" width="1" height="1" fill="#FFFFFF" />
<rect x="17" y="3" width="3" height="1" fill="#0000FF" />
<rect x="20" y="3" width="1" height="1" fill="#FFFFFF" />
<rect x="21" y="3" width="1" height="12" fill="#0000FF" />
<rect x="22" y="3" width="35" height="2" fill="#FFFFFF" />
<rect x="2" y="4" width="1" height="1" fill="#FFFFFF" />
<rect x="3" y="4" width="3" height="1" fill="#0000FF" />
<rect x="6" y="4" width="1" height="1" fill="#FFFFFF" />
<rect x="7" y="4" width="3" height="1" fill="#0000FF" />
<rect x="10" y="4" width="1" height="1" fill="#FFFFFF" />
<rect x="11" y="4" width="3" height="1" fill="#0000FF" />
<rect x="14" y="4" width="1" height="1" fill="#FFFFFF" />
<rect x="15" y="4" width="3" height="1" fill="#0000FF" />
<rect x="18" y="4" width="1" height="1" fill="#FFFFFF" />
<rect x="19" y="4" width="2" height="1" fill="#0000FF" />
<rect x="2" y="5" width="2" height="1" fill="#0000FF" />
<rect x="4" y="5" width="1" height="1" fill="#FFFFFF" />
<rect x="5" y="5" width="3" height="1" fill="#0000FF" />
<rect x="8" y="5" width="1" height="1" fill="#FFFFFF" />
<rect x="9" y="5" width="3" height="1" fill="#0000FF" />
<rect x="12" y="5" width="1" height="1" fill="#FFFFFF" />
<rect x="13" y="5" width="3" height="1" fill="#0000FF" />
<rect x="16" y="5" width="1" height="1" fill="#FFFFFF" />
<rect x="17" y="5" width="3" height="1" fill="#0000FF" />
<rect x="20" y="5" width="1" height="1" fill="#FFFFFF" />
<rect x="22" y="5" width="35" height="2" fill="#FF0000" />
<rect x="2" y="6" width="1" height="1" fill="#FFFFFF" />
<rect x="3" y="6" width="3" height="1" fill="#0000FF" />
<rect x="6" y="6" width="1" height="1" fill="#FFFFFF" />
<rect x="7" y="6" width="3" height="1" fill="#0000FF" />
<rect x="10" y="6" width="1" height="1" fill="#FFFFFF" />
<rect x="11" y="6" width="3" height="1" fill="#0000FF" />
<rect x="14" y="6" width="1" height="1" fill="#FFFFFF" />
<rect x="15" y="6" width="3" height="1" fill="#0000FF" />
<rect x="18" y="6" width="1" height="1" fill="#FFFFFF" />
<rect x="19" y="6" width="2" height="1" fill="#0000FF" />
<rect x="2" y="7" width="2" height="1" fill="#0000FF" />
<rect x="4" y="7" width="1" height="1" fill="#FFFFFF" />
<rect x="5" y="7" width="3" height="1" fill="#0000FF" />
<rect x="8" y="7" width="1" height="1" fill="#FFFFFF" />
<rect x="9" y="7" width="3" height="1" fill="#0000FF" />
<rect x="12" y="7" width="1" height="1" fill="#FFFFFF" />
<rect x="13" y="7" width="3" height="1" fill="#0000FF" />
<rect x="16" y="7" width="1" height="1" fill="#FFFFFF" />
<rect x="17" y="7" width="3" height="1" fill="#0000FF" />
<rect x="20" y="7" width="1" height="1" fill="#FFFFFF" />
<rect x="22" y="7" width="35" height="2" fill="#FFFFFF" />
<rect x="2" y="8" width="1" height="1" fill="#FFFFFF" />
<rect x="3" y="8" width="3" height="1" fill="#0000FF" />
<rect x="6" y="8" width="1" height="1" fill="#FFFFFF" />
<rect x="7" y="8" width="3" height="1" fill="#0000FF" />
<rect x="10" y="8" width="1" height="1" fill="#FFFFFF" />
<rect x="11" y="8" width="3" height="1" fill="#0000FF" />
<rect x="14" y="8" width="1" height="1" fill="#FFFFFF" />
<rect x="15" y="8" width="3" height="1" fill="#0000FF" />
<rect x="18" y="8" width="1" height="1" fill="#FFFFFF" />
<rect x="19" y="8" width="2" height="1" fill="#0000FF" />
<rect x="2" y="9" width="2" height="1" fill="#0000FF" />
<rect x="4" y="9" width="1" height="1" fill="#FFFFFF" />
<rect x="5" y="9" width="3" height="1" fill="#0000FF" />
<rect x="8" y="9" width="1" height="1" fill="#FFFFFF" />
<rect x="9" y="9" width="3" height="1" fill="#0000FF" />
<rect x="12" y="9" width="1" height="1" fill="#FFFFFF" />
<rect x="13" y="9" width="3" height="1" fill="#0000FF" />
<rect x="16" y="9" width="1" height="1" fill="#FFFFFF" />
<rect x="17" y="9" width="3" height="1" fill="#0000FF" />
<rect x="20" y="9" width="1" height="1" fill="#FFFFFF" />
<rect x="22" y="9" width="35" height="2" fill="#FF0000" />
<rect x="2" y="10" width="1" height="1" fill="#FFFFFF" />
<rect x="3" y="10" width="3" height="1" fill="#0000FF" />
<rect x="6" y="10" width="1" height="1" fill="#FFFFFF" />
<rect x="7" y="10" width="3" height="1" fill="#0000FF" />
<rect x="10" y="10" width="1" height="1" fill="#FFFFFF" />
<rect x="11" y="10" width="3" height="1" fill="#0000FF" />
<rect x="14" y="10" width="1" height="1" fill="#FFFFFF" />
<rect x="15" y="10" width="3" height="1" fill="#0000FF" />
<rect x="18" y="10" width="1" height="1" fill="#FFFFFF" />
<rect x="19" y="10" width="2" height="1" fill="#0000FF" />
<rect x="2" y="11" width="2" height="1" fill="#0000FF" />
<rect x="4" y="11" width="1" height="1" fill="#FFFFFF" />
<rect x="5" y="11" width="3" height="1" fill="#0000FF" />
<rect x="8" y="11" width="1" height="1" fill="#FFFFFF" />
<rect x="9" y="11" width="3" height="1" fill="#0000FF" />
<rect x="12" y="11" width="1" height="1" fill="#FFFFFF" />
<rect x="13" y="11" width="3" height="1" fill="#0000FF" />
<rect x="16" y="11" width="1" height="1" fill="#FFFFFF" />
<rect x="17" y="11" width="3" height="1" fill="#0000FF" />
<rect x="20" y="11" width="1" height="1" fill="#FFFFFF" />
<rect x="22" y="11" width="35" height="2" fill="#FFFFFF" />
<rect x="2" y="12" width="1" height="1" fill="#FFFFFF" />
<rect x="3" y="12" width="3" height="1" fill="#0000FF" />
<rect x="6" y="12" width="1" height="1" fill="#FFFFFF" />
<rect x="7" y="12" width="3" height="1" fill="#0000FF" />
<rect x="10" y="12" width="1" height="1" fill="#FFFFFF" />
<rect x="11" y="12" width="3" height="1" fill="#0000FF" />
<rect x="14" y="12" width="1" height="1" fill="#FFFFFF" />
<rect x="15" y="12" width="3" height="1" fill="#0000FF" />
<rect x="18" y="12" width="1" height="1" fill="#FFFFFF" />
<rect x="19" y="12" width="2" height="1" fill="#0000FF" />
<rect x="2" y="13" width="2" height="2" fill="#0000FF" />
<rect x="4" y="13" width="1" height="1" fill="#FFFFFF" />
<rect x="5" y="13" width="3" height="2" fill="#0000FF" />
<rect x="8" y="13" width="1" height="1" fill="#FFFFFF" />
<rect x="9" y="13" width="3" height="2" fill="#0000FF" />
<rect x="12" y="13" width="1" height="1" fill="#FFFFFF" />
<rect x="13" y="13" width="3" height="2" fill="#0000FF" />
<rect x="16" y="13" width="1" height="1" fill="#FFFFFF" />
<rect x="17" y="13" width="3" height="2" fill="#0000FF" />
<rect x="20" y="13" width="1" height="1" fill="#FFFFFF" />
<rect x="22" y="13" width="35" height="2" fill="#FF0000" />
<rect x="4" y="14" width="1" height="1" fill="#0000FF" />
<rect x="8" y="14" width="1" height="1" fill="#0000FF" />
<rect x="12" y="14" width="1" height="1" fill="#0000FF" />
<rect x="16" y="14" width="1" height="1" fill="#0000FF" />
<rect x="20" y="14" width="1" height="1" fill="#0000FF" />
<rect x="1" y="15" width="56" height="2" fill="#FFFFFF" />
<rect x="1" y="17" width="56" height="2" fill="#FF0000" />
<rect x="1" y="19" width="56" height="2" fill="#FFFFFF" />
<rect x="1" y="21" width="56" height="2" fill="#FF0000" />
<rect x="1" y="23" width="56" height="2" fill="#FFFFFF" />
<rect x="1" y="25" width="56" height="2" fill="#FF0000" />
<rect x="1" y="27" width="56" height="1" fill="#AA0000" />
</svg>