<?xml version="1.0" encoding="UTF-8" ?>
<svg version="1.1" width="58" height="28" xmlns="http://www.w3.org/2000/svg" shape-rendering="crispEdges">
<rect x="0" y="0" width="58" height="1" fill="#1A7A3E" />
<rect x="0" y="1" width="1" height="27" fill="#1A7A3E" />
<rect x="1" y="1" width="56" height="1" fill="#14A02E" />
<rect x="57" y="1" width="1" height="27" fill="#1A7A3E" />
<rect x="1" y="2" width="25" height="1" fill="#14A02E" />
<rect x="26" y="2" width="5" height="5" fill="#FFFC40" />
<rect x="31" y="2" width="26" height="1" fill="#14A02E" />
<rect x="1" y="3" width="22" height="1" fill="#14A02E" />
<rect x="23" y="3" width="3" height="5" fill="#FFFC40" />
<rect x="31" y="3" width="3" height="5" fill="#FFFC40" />
<rect x="34" y="3" width="23" height="1" fill="#14A02E" />
<rect x="1" y="4" width="20" height="1" fill="#14A02E" />
<rect x="21" y="4" width="2" height="7" fill="#FFFC40" />
<rect x="34" y="4" width="2" height="6" fill="#FFFC40" />
<rect x="36" y="4" width="21" height="1" fill="#14A02E" />
<rect x="1" y="5" width="18" height="1" fill="#14A02E" />
<rect x="19" y="5" width="2" height="18" fill="#FFFC40" />
<rect x="36" y="5" width="2" height="8" fill="#FFFC40" />
<rect x="38" y="5" width="19" height="1" fill="#14A02E" />
<rect x="1" y="6" width="16" height="1" fill="#14A02E" />
<rect x="17" y="6" width="2" height="16" fill="#FFFC40" />
<rect x="38" y="6" width="2" height="16" fill="#FFFC40" />
<rect x="40" y="6" width="17" height="1" fill="#14A02E" />
<rect x="1" y="7" width="14" height="1" fill="#14A02E" />
<rect x="15" y="7" width="2" height="14" fill="#FFFC40" />
<rect x="26" y="7" width="1" height="1" fill="#FFFC40" />
<rect x="27" y="7" width="4" height="6" fill="#285CC4" />
<rect x="40" y="7" width="2" height="14" fill="#FFFC40" />
<rect x="42" y="7" width="15" height="1" fill="#14A02E" />
<rect x="1" y="8" width="12" height="1" fill="#14A02E" />
<rect x="13" y="8" width="2" height="12" fill="#FFFC40" />
<rect x="23" y="8" width="2" height="1" fill="#FFFC40" />
<rect x="25" y="8" width="2" height="4" fill="#285CC4" />
<rect x="31" y="8" width="2" height="6" fill="#285CC4" />
<rect x="33" y="8" width="1" height="1" fill="#FFFC40" />
<rect x="42" y="8" width="2" height="12" fill="#FFFC40" />
<rect x="44" y="8" width="13" height="1" fill="#14A02E" />
<rect x="1" y="9" width="11" height="1" fill="#14A02E" />
<rect x="12" y="9" width="1" height="10" fill="#FFFC40" />
<rect x="23" y="9" width="1" height="1" fill="#FFFC40" />
<rect x="24" y="9" width="1" height="2" fill="#285CC4" />
<rect x="33" y="9" width="1" height="6" fill="#285CC4" />
<rect x="44" y="9" width="2" height="10" fill="#FFFC40" />
<rect x="46" y="9" width="11" height="1" fill="#14A02E" />
<rect x="1" y="10" width="9" height="1" fill="#14A02E" />
<rect x="10" y="10" width="2" height="8" fill="#FFFC40" />
<rect x="23" y="10" width="1" height="1" fill="#285CC4" />
<rect x="34" y="10" width="1" height="5" fill="#285CC4" />
<rect x="35" y="10" width="1" height="1" fill="#FFFC40" />
<rect x="46" y="10" width="2" height="8" fill="#FFFC40" />
<rect x="48" y="10" width="9" height="1" fill="#14A02E" />
<rect x="1" y="11" width="7" height="1" fill="#14A02E" />
<rect x="8" y="11" width="2" height="6" fill="#FFFC40" />
<rect x="21" y="11" width="1" height="2" fill="#FFFC40" />
<rect x="22" y="11" width="3" height="1" fill="#FFFFFF" />
<rect x="35" y="11" width="1" height="4" fill="#285CC4" />
<rect x="48" y="11" width="2" height="6" fill="#FFFC40" />
<rect x="50" y="11" width="7" height="1" fill="#14A02E" />
<rect x="1" y="12" width="5" height="1" fill="#14A02E" />
<rect x="6" y="12" width="2" height="4" fill="#FFFC40" />
<rect x="22" y="12" width="1" height="5" fill="#285CC4" />
<rect x="23" y="12" width="1" height="1" fill="#DAE0EA" />
<rect x="24" y="12" width="3" height="1" fill="#FFFFFF" />
<rect x="50" y="12" width="2" height="4" fill="#FFFC40" />
<rect x="52" y="12" width="5" height="1" fill="#14A02E" />
<rect x="1" y="13" width="3" height="14" fill="#14A02E" />
<rect x="4" y="13" width="2" height="2" fill="#FFFC40" />
<rect x="21" y="13" width="1" height="2" fill="#285CC4" />
<rect x="23" y="13" width="3" height="5" fill="#285CC4" />
<rect x="26" y="13" width="1" height="1" fill="#DAE0EA" />
<rect x="27" y="13" width="3" height="1" fill="#FFFFFF" />
<rect x="30" y="13" width="1" height="1" fill="#285CC4" />
<rect x="36" y="13" width="1" height="2" fill="#285CC4" />
<rect x="37" y="13" width="1" height="10" fill="#FFFC40" />
<rect x="52" y="13" width="2" height="2" fill="#FFFC40" />
<rect x="54" y="13" width="3" height="14" fill="#14A02E" />
<rect x="26" y="14" width="3" height="6" fill="#285CC4" />
<rect x="29" y="14" width="1" height="1" fill="#DAE0EA" />
<rect x="30" y="14" width="3" height="1" fill="#FFFFFF" />
<rect x="4" y="15" width="2" height="12" fill="#14A02E" />
<rect x="21" y="15" width="1" height="9" fill="#FFFC40" />
<rect x="29" y="15" width="3" height="5" fill="#285CC4" />
<rect x="32" y="15" width="1" height="1" fill="#DAE0EA" />
<rect x="33" y="15" width="3" height="1" fill="#FFFFFF" />
<rect x="36" y="15" width="1" height="8" fill="#FFFC40" />
<rect x="52" y="15" width="2" height="12" fill="#14A02E" />
<rect x="6" y="16" width="2" height="11" fill="#14A02E" />
<rect x="32" y="16" width="3" height="2" fill="#285CC4" />
<rect x="35" y="16" width="1" height="1" fill="#DAE0EA" />
<rect x="50" y="16" width="2" height="11" fill="#14A02E" />
<rect x="8" y="17" width="2" height="10" fill="#14A02E" />
<rect x="22" y="17" width="1" height="7" fill="#FFFC40" />
<rect x="35" y="17" width="1" height="7" fill="#FFFC40" />
<rect x="48" y="17" width="2" height="10" fill="#14A02E" />
<rect x="10" y="18" width="2" height="9" fill="#14A02E" />
<rect x="23" y="18" width="1" height="7" fill="#FFFC40" />
<rect x="24" y="18" width="2" height="1" fill="#285CC4" />
<rect x="32" y="18" width="2" height="1" fill="#285CC4" />
<rect x="34" y="18" width="1" height="6" fill="#FFFC40" />
<rect x="46" y="18" width="2" height="9" fill="#14A02E" />
<rect x="12" y="19" width="1" height="8" fill="#14A02E" />
<rect x="24" y="19" width="1" height="6" fill="#FFFC40" />
<rect x="25" y="19" width="1" height="1" fill="#285CC4" />
<rect x="32" y="19" width="1" height="1" fill="#285CC4" />
<rect x="33" y="19" width="1" height="6" fill="#FFFC40" />
<rect x="44" y="19" width="2" height="8" fill="#14A02E" />
<rect x="13" y="20" width="2" height="7" fill="#14A02E" />
<rect x="25" y="20" width="2" height="5" fill="#FFFC40" />
<rect x="27" y="20" width="4" height="1" fill="#285CC4" />
<rect x="31" y="20" width="2" height="5" fill="#FFFC40" />
<rect x="42" y="20" width="2" height="7" fill="#14A02E" />
<rect x="15" y="21" width="2" height="6" fill="#14A02E" />
<rect x="27" y="21" width="4" height="5" fill="#FFFC40" />
<rect x="40" y="21" width="2" height="6" fill="#14A02E" />
<rect x="17" y="22" width="2" height="5" fill="#14A02E" />
<rect x="38" y="22" width="2" height="5" fill="#14A02E" />
<rect x="19" y="23" width="2" height="4" fill="#14A02E" />
<rect x="36" y="23" width="2" height="4" fill="#14A02E" />
<rect x="21" y="24" width="2" height="3" fill="#14A02E" />
<rect x="34" y="24" width="2" height="3" fill="#14A02E" />
<rect x="23" y="25" width="3" height="2" fill="#14A02E" />
<rect x="26" y="25" width="1" height="1" fill="#FFFC40" />
<rect x="31" y="25" width="3" height="2" fill="#14A02E" />
<rect x="26" y="26" width="5" height="1" fill="#14A02E" />
<rect x="1" y="27" width="56" height="1" fill="#1A7A3E" />
</svg>